%TF.GenerationSoftware,KiCad,Pcbnew,7.0.10-7.0.10~ubuntu23.04.1*%
%TF.CreationDate,2024-02-22T19:52:03-05:00*%
%TF.ProjectId,hackrf-one,6861636b-7266-42d6-9f6e-652e6b696361,10*%
%TF.SameCoordinates,Original*%
%TF.FileFunction,Soldermask,Top*%
%TF.FilePolarity,Negative*%
%FSLAX46Y46*%
G04 Gerber Fmt 4.6, Leading zero omitted, Abs format (unit mm)*
G04 Created by KiCad (PCBNEW 7.0.10-7.0.10~ubuntu23.04.1) date 2024-02-22 19:52:03*
%MOMM*%
%LPD*%
G01*
G04 APERTURE LIST*
G04 Aperture macros list*
%AMRoundRect*
0 Rectangle with rounded corners*
0 $1 Rounding radius*
0 $2 $3 $4 $5 $6 $7 $8 $9 X,Y pos of 4 corners*
0 Add a 4 corners polygon primitive as box body*
4,1,4,$2,$3,$4,$5,$6,$7,$8,$9,$2,$3,0*
0 Add four circle primitives for the rounded corners*
1,1,$1+$1,$2,$3*
1,1,$1+$1,$4,$5*
1,1,$1+$1,$6,$7*
1,1,$1+$1,$8,$9*
0 Add four rect primitives between the rounded corners*
20,1,$1+$1,$2,$3,$4,$5,0*
20,1,$1+$1,$4,$5,$6,$7,0*
20,1,$1+$1,$6,$7,$8,$9,0*
20,1,$1+$1,$8,$9,$2,$3,0*%
G04 Aperture macros list end*
%ADD10RoundRect,0.101600X-0.500000X0.750000X-0.500000X-0.750000X0.500000X-0.750000X0.500000X0.750000X0*%
%ADD11C,0.762000*%
%ADD12C,2.000000*%
%ADD13RoundRect,0.101600X-0.279400X0.254000X-0.279400X-0.254000X0.279400X-0.254000X0.279400X0.254000X0*%
%ADD14RoundRect,0.101600X0.279400X-0.254000X0.279400X0.254000X-0.279400X0.254000X-0.279400X-0.254000X0*%
%ADD15RoundRect,0.101600X0.254000X0.279400X-0.254000X0.279400X-0.254000X-0.279400X0.254000X-0.279400X0*%
%ADD16RoundRect,0.101600X-0.254000X-0.279400X0.254000X-0.279400X0.254000X0.279400X-0.254000X0.279400X0*%
%ADD17RoundRect,0.101600X0.720090X-0.575310X0.720090X0.575310X-0.720090X0.575310X-0.720090X-0.575310X0*%
%ADD18RoundRect,0.101600X-0.575310X-0.720090X0.575310X-0.720090X0.575310X0.720090X-0.575310X0.720090X0*%
%ADD19RoundRect,0.101600X0.377171X0.017961X0.017961X0.377171X-0.377171X-0.017961X-0.017961X-0.377171X0*%
%ADD20RoundRect,0.101600X-0.017961X0.377171X-0.377171X0.017961X0.017961X-0.377171X0.377171X-0.017961X0*%
%ADD21RoundRect,0.101600X-0.377171X-0.017961X-0.017961X-0.377171X0.377171X0.017961X0.017961X0.377171X0*%
%ADD22RoundRect,0.101600X0.017961X-0.377171X0.377171X-0.017961X-0.017961X0.377171X-0.377171X0.017961X0*%
%ADD23RoundRect,0.101600X-0.720090X0.575310X-0.720090X-0.575310X0.720090X-0.575310X0.720090X0.575310X0*%
%ADD24RoundRect,0.101600X0.575310X0.720090X-0.575310X0.720090X-0.575310X-0.720090X0.575310X-0.720090X0*%
%ADD25C,1.600000*%
%ADD26RoundRect,0.050000X0.730000X1.070000X-0.730000X1.070000X-0.730000X-1.070000X0.730000X-1.070000X0*%
%ADD27C,1.500000*%
%ADD28RoundRect,0.050000X1.050000X0.875000X-1.050000X0.875000X-1.050000X-0.875000X1.050000X-0.875000X0*%
%ADD29RoundRect,0.050000X1.050000X0.687500X-1.050000X0.687500X-1.050000X-0.687500X1.050000X-0.687500X0*%
%ADD30RoundRect,0.050000X0.675000X0.912500X-0.675000X0.912500X-0.675000X-0.912500X0.675000X-0.912500X0*%
%ADD31RoundRect,0.101600X0.875000X0.200000X-0.875000X0.200000X-0.875000X-0.200000X0.875000X-0.200000X0*%
%ADD32RoundRect,0.050000X-1.900000X-0.500000X1.900000X-0.500000X1.900000X0.500000X-1.900000X0.500000X0*%
%ADD33RoundRect,0.050000X-1.925000X-0.500000X1.925000X-0.500000X1.925000X0.500000X-1.925000X0.500000X0*%
%ADD34RoundRect,0.050000X0.500000X-1.900000X0.500000X1.900000X-0.500000X1.900000X-0.500000X-1.900000X0*%
%ADD35RoundRect,0.050000X0.500000X-1.675000X0.500000X1.675000X-0.500000X1.675000X-0.500000X-1.675000X0*%
%ADD36C,0.700000*%
%ADD37C,5.700000*%
%ADD38RoundRect,0.050000X-1.025000X1.825000X-1.025000X-1.825000X1.025000X-1.825000X1.025000X1.825000X0*%
%ADD39RoundRect,0.101600X-0.431800X0.431800X-0.431800X-0.431800X0.431800X-0.431800X0.431800X0.431800X0*%
%ADD40RoundRect,0.101600X0.431800X-0.431800X0.431800X0.431800X-0.431800X0.431800X-0.431800X-0.431800X0*%
%ADD41RoundRect,0.101600X-0.431800X-0.431800X0.431800X-0.431800X0.431800X0.431800X-0.431800X0.431800X0*%
%ADD42RoundRect,0.050000X-1.850390X0.599440X-1.850390X-0.599440X1.850390X-0.599440X1.850390X0.599440X0*%
%ADD43RoundRect,0.050000X2.095000X0.890000X-2.095000X0.890000X-2.095000X-0.890000X2.095000X-0.890000X0*%
%ADD44RoundRect,0.050000X2.095000X1.332500X-2.095000X1.332500X-2.095000X-1.332500X2.095000X-1.332500X0*%
%ADD45RoundRect,0.050000X-0.762000X0.762000X-0.762000X-0.762000X0.762000X-0.762000X0.762000X0.762000X0*%
%ADD46C,1.624000*%
%ADD47RoundRect,0.050000X-2.095000X-0.890000X2.095000X-0.890000X2.095000X0.890000X-2.095000X0.890000X0*%
%ADD48RoundRect,0.050000X-2.095000X-1.332500X2.095000X-1.332500X2.095000X1.332500X-2.095000X1.332500X0*%
%ADD49RoundRect,0.050000X0.762000X0.762000X-0.762000X0.762000X-0.762000X-0.762000X0.762000X-0.762000X0*%
%ADD50C,1.370000*%
%ADD51RoundRect,0.050000X0.762000X-0.762000X0.762000X0.762000X-0.762000X0.762000X-0.762000X-0.762000X0*%
%ADD52RoundRect,0.050000X-0.762000X-0.762000X0.762000X-0.762000X0.762000X0.762000X-0.762000X0.762000X0*%
%ADD53RoundRect,0.050000X-0.533400X0.533400X-0.533400X-0.533400X0.533400X-0.533400X0.533400X0.533400X0*%
%ADD54C,1.166800*%
%ADD55RoundRect,0.050000X-0.457200X-0.457200X0.457200X-0.457200X0.457200X0.457200X-0.457200X0.457200X0*%
%ADD56RoundRect,0.050000X0.457200X0.457200X-0.457200X0.457200X-0.457200X-0.457200X0.457200X-0.457200X0*%
%ADD57RoundRect,0.050000X-0.457200X0.457200X-0.457200X-0.457200X0.457200X-0.457200X0.457200X0.457200X0*%
%ADD58C,2.100000*%
%ADD59RoundRect,0.050000X-0.165100X0.204470X-0.165100X-0.204470X0.165100X-0.204470X0.165100X0.204470X0*%
%ADD60RoundRect,0.050000X-0.204470X-0.165100X0.204470X-0.165100X0.204470X0.165100X-0.204470X0.165100X0*%
%ADD61RoundRect,0.050000X0.275590X-0.124460X0.275590X0.124460X-0.275590X0.124460X-0.275590X-0.124460X0*%
%ADD62RoundRect,0.050000X-0.115000X0.322500X-0.115000X-0.322500X0.115000X-0.322500X0.115000X0.322500X0*%
%ADD63RoundRect,0.050000X-0.406500X0.150000X-0.406500X-0.150000X0.406500X-0.150000X0.406500X0.150000X0*%
%ADD64RoundRect,0.050000X-0.322500X-0.115000X0.322500X-0.115000X0.322500X0.115000X-0.322500X0.115000X0*%
%ADD65RoundRect,0.050000X-0.150000X-0.406500X0.150000X-0.406500X0.150000X0.406500X-0.150000X0.406500X0*%
%ADD66RoundRect,0.050000X-0.250190X-0.199390X0.250190X-0.199390X0.250190X0.199390X-0.250190X0.199390X0*%
%ADD67R,3.326880X3.326880*%
%ADD68O,0.422240X1.492240*%
%ADD69O,1.492240X0.422240*%
%ADD70RoundRect,0.050000X0.115000X-0.322500X0.115000X0.322500X-0.115000X0.322500X-0.115000X-0.322500X0*%
%ADD71RoundRect,0.050000X0.406500X-0.150000X0.406500X0.150000X-0.406500X0.150000X-0.406500X-0.150000X0*%
%ADD72RoundRect,0.050000X0.250190X0.350520X-0.250190X0.350520X-0.250190X-0.350520X0.250190X-0.350520X0*%
%ADD73RoundRect,0.050000X0.299720X0.250190X-0.299720X0.250190X-0.299720X-0.250190X0.299720X-0.250190X0*%
%ADD74RoundRect,0.050000X0.250000X0.600000X-0.250000X0.600000X-0.250000X-0.600000X0.250000X-0.600000X0*%
%ADD75O,0.300000X1.200000*%
%ADD76RoundRect,0.050000X0.110789X-0.010211X-0.010211X0.110789X-0.110789X0.010211X0.010211X-0.110789X0*%
%ADD77RoundRect,0.050000X0.100000X0.075000X-0.100000X0.075000X-0.100000X-0.075000X0.100000X-0.075000X0*%
%ADD78RoundRect,0.050000X0.100000X0.650000X-0.100000X0.650000X-0.100000X-0.650000X0.100000X-0.650000X0*%
%ADD79O,0.300000X1.300000*%
%ADD80RoundRect,0.050000X0.400000X0.120000X-0.400000X0.120000X-0.400000X-0.120000X0.400000X-0.120000X0*%
%ADD81O,1.200000X0.300000*%
%ADD82RoundRect,0.050000X0.010211X0.110789X-0.110789X-0.010211X-0.010211X-0.110789X0.110789X0.010211X0*%
%ADD83RoundRect,0.050000X-0.650000X0.100000X-0.650000X-0.100000X0.650000X-0.100000X0.650000X0.100000X0*%
%ADD84RoundRect,0.050000X-0.075000X0.100000X-0.075000X-0.100000X0.075000X-0.100000X0.075000X0.100000X0*%
%ADD85RoundRect,0.050000X-0.600000X0.250000X-0.600000X-0.250000X0.600000X-0.250000X0.600000X0.250000X0*%
%ADD86O,1.300000X0.300000*%
%ADD87RoundRect,0.050000X-0.120000X0.400000X-0.120000X-0.400000X0.120000X-0.400000X0.120000X0.400000X0*%
%ADD88RoundRect,0.050000X-0.495300X0.228600X-0.495300X-0.228600X0.495300X-0.228600X0.495300X0.228600X0*%
%ADD89RoundRect,0.050000X-0.010211X-0.110789X0.110789X0.010211X0.010211X0.110789X-0.110789X-0.010211X0*%
%ADD90RoundRect,0.050000X0.600000X-0.250000X0.600000X0.250000X-0.600000X0.250000X-0.600000X-0.250000X0*%
%ADD91RoundRect,0.050000X0.075000X-0.100000X0.075000X0.100000X-0.075000X0.100000X-0.075000X-0.100000X0*%
%ADD92RoundRect,0.050000X0.650000X-0.100000X0.650000X0.100000X-0.650000X0.100000X-0.650000X-0.100000X0*%
%ADD93RoundRect,0.050000X0.120000X-0.400000X0.120000X0.400000X-0.120000X0.400000X-0.120000X-0.400000X0*%
%ADD94RoundRect,0.050000X-0.250000X0.550000X-0.250000X-0.550000X0.250000X-0.550000X0.250000X0.550000X0*%
%ADD95RoundRect,0.050000X-0.450000X0.150000X-0.450000X-0.150000X0.450000X-0.150000X0.450000X0.150000X0*%
%ADD96R,4.321800X4.321800*%
%ADD97O,0.346600X0.971600*%
%ADD98O,0.971600X0.346600*%
%ADD99R,5.096800X5.096800*%
%ADD100O,0.422240X1.042240*%
%ADD101O,1.042240X0.422240*%
%ADD102R,2.451880X2.451880*%
%ADD103O,0.462240X1.342240*%
%ADD104O,1.342240X0.462240*%
%ADD105RoundRect,0.050000X0.952500X0.317500X-0.952500X0.317500X-0.952500X-0.317500X0.952500X-0.317500X0*%
%ADD106RoundRect,0.050000X0.412500X0.600000X-0.412500X0.600000X-0.412500X-0.600000X0.412500X-0.600000X0*%
%ADD107RoundRect,0.050000X0.140000X0.700000X-0.140000X0.700000X-0.140000X-0.700000X0.140000X-0.700000X0*%
%ADD108C,0.685000*%
%ADD109RoundRect,0.050000X0.425000X0.140000X-0.425000X0.140000X-0.425000X-0.140000X0.425000X-0.140000X0*%
%ADD110RoundRect,0.050000X0.426562X0.634904X-0.634904X-0.426562X-0.426562X-0.634904X0.634904X0.426562X0*%
%ADD111RoundRect,0.050000X-0.634904X0.426562X0.426562X-0.634904X0.634904X-0.426562X-0.426562X0.634904X0*%
%ADD112RoundRect,0.050000X-0.147320X0.750570X-0.147320X-0.750570X0.147320X-0.750570X0.147320X0.750570X0*%
%ADD113RoundRect,0.050000X-0.750570X-0.147320X0.750570X-0.147320X0.750570X0.147320X-0.750570X0.147320X0*%
%ADD114RoundRect,0.050000X0.495300X-0.228600X0.495300X0.228600X-0.495300X0.228600X-0.495300X-0.228600X0*%
%ADD115RoundRect,0.050000X0.599440X-0.699770X0.599440X0.699770X-0.599440X0.699770X-0.599440X-0.699770X0*%
%ADD116RoundRect,0.050000X-0.070944X-0.918680X0.918680X0.070944X0.070944X0.918680X-0.918680X-0.070944X0*%
%ADD117RoundRect,0.050000X-1.200000X-0.750000X1.200000X-0.750000X1.200000X0.750000X-1.200000X0.750000X0*%
%ADD118RoundRect,0.050000X-0.550000X-0.300000X0.550000X-0.300000X0.550000X0.300000X-0.550000X0.300000X0*%
%ADD119RoundRect,0.050000X-0.300000X0.175000X-0.300000X-0.175000X0.300000X-0.175000X0.300000X0.175000X0*%
%ADD120RoundRect,0.050000X-0.431800X0.254000X-0.431800X-0.254000X0.431800X-0.254000X0.431800X0.254000X0*%
%ADD121O,0.963600X1.192200*%
G04 APERTURE END LIST*
D10*
%TO.C,D6*%
X61270000Y-150088000D03*
X61270000Y-147588000D03*
%TD*%
%TO.C,D4*%
X61270000Y-140944000D03*
X61270000Y-138444000D03*
%TD*%
%TO.C,D8*%
X61270000Y-131800000D03*
X61270000Y-129300000D03*
%TD*%
%TO.C,D5*%
X61270000Y-145516000D03*
X61270000Y-143016000D03*
%TD*%
%TO.C,D2*%
X61270000Y-136372000D03*
X61270000Y-133872000D03*
%TD*%
D11*
%TO.C,TESTPOINT-30MIL-MASKONLY*%
X89314020Y-142499080D03*
%TD*%
%TO.C,TESTPOINT-30MIL-MASKONLY*%
X84104600Y-151657400D03*
%TD*%
%TO.C,TESTPOINT-30MIL-MASKONLY*%
X75575160Y-144213580D03*
%TD*%
%TO.C,TESTPOINT-30MIL-MASKONLY*%
X74053700Y-146151600D03*
%TD*%
%TO.C,TESTPOINT-30MIL-MASKONLY*%
X93782000Y-138932000D03*
%TD*%
%TO.C,TESTPOINT-30MIL-MASKONLY*%
X85400000Y-161360200D03*
%TD*%
%TO.C,TESTPOINT-30MIL-MASKONLY*%
X75338940Y-157848300D03*
%TD*%
%TO.C,TESTPOINT-30MIL-MASKONLY*%
X79280000Y-151506000D03*
%TD*%
%TO.C,TESTPOINT-30MIL-MASKONLY*%
X113919000Y-161749740D03*
%TD*%
%TO.C,TESTPOINT-30MIL-MASKONLY*%
X104112060Y-168798240D03*
%TD*%
%TO.C,TESTPOINT-30MIL-MASKONLY*%
X104251760Y-165374320D03*
%TD*%
%TO.C,TESTPOINT-30MIL-MASKONLY*%
X101015800Y-166263320D03*
%TD*%
%TO.C,TESTPOINT-30MIL-MASKONLY*%
X79667100Y-147711160D03*
%TD*%
%TO.C,TESTPOINT-30MIL-MASKONLY*%
X109476540Y-159425640D03*
%TD*%
%TO.C,TESTPOINT-30MIL-MASKONLY*%
X99362260Y-147688300D03*
%TD*%
%TO.C,TESTPOINT-30MIL-MASKONLY*%
X103230680Y-154279600D03*
%TD*%
%TO.C,TESTPOINT-30MIL-MASKONLY*%
X112715040Y-153710640D03*
%TD*%
D10*
%TO.C,D7*%
X61000000Y-119150000D03*
X61000000Y-116650000D03*
%TD*%
D12*
%TO.C,FID1*%
X171000000Y-102000000D03*
%TD*%
D13*
%TO.C,C1*%
X91096400Y-162513400D03*
X91096400Y-163580200D03*
%TD*%
%TO.C,C2*%
X90080400Y-162513400D03*
X90080400Y-163580200D03*
%TD*%
%TO.C,C3*%
X93128400Y-162513400D03*
X93128400Y-163580200D03*
%TD*%
%TO.C,C4*%
X92112400Y-162513400D03*
X92112400Y-163580200D03*
%TD*%
D14*
%TO.C,C5*%
X92341000Y-152861400D03*
X92341000Y-151794600D03*
%TD*%
%TO.C,C6*%
X93357000Y-152861400D03*
X93357000Y-151794600D03*
%TD*%
D15*
%TO.C,C7*%
X107617400Y-168576200D03*
X106550600Y-168576200D03*
%TD*%
D13*
%TO.C,C8*%
X113919000Y-154914600D03*
X113919000Y-155981400D03*
%TD*%
D14*
%TO.C,C9*%
X85400000Y-149701600D03*
X85400000Y-148634800D03*
%TD*%
D16*
%TO.C,C10*%
X87447400Y-143481600D03*
X88514200Y-143481600D03*
%TD*%
D14*
%TO.C,C11*%
X84713800Y-143995600D03*
X84713800Y-142928800D03*
%TD*%
D13*
%TO.C,C12*%
X87794400Y-153293200D03*
X87794400Y-154360000D03*
%TD*%
D15*
%TO.C,C13*%
X89089800Y-150905600D03*
X88023000Y-150905600D03*
%TD*%
D14*
%TO.C,C14*%
X90334400Y-153217000D03*
X90334400Y-152150200D03*
%TD*%
D16*
%TO.C,C15*%
X90309000Y-150905600D03*
X91375800Y-150905600D03*
%TD*%
D14*
%TO.C,C16*%
X106499800Y-164690000D03*
X106499800Y-163623200D03*
%TD*%
D16*
%TO.C,C17*%
X82402400Y-141938200D03*
X83469200Y-141938200D03*
%TD*%
%TO.C,C18*%
X78338400Y-141938200D03*
X79405200Y-141938200D03*
%TD*%
D14*
%TO.C,C19*%
X77093800Y-143868600D03*
X77093800Y-142801800D03*
%TD*%
D16*
%TO.C,C20*%
X87274400Y-141528800D03*
X88341200Y-141528800D03*
%TD*%
D15*
%TO.C,C21*%
X102971600Y-165379400D03*
X101904800Y-165379400D03*
%TD*%
D16*
%TO.C,C22*%
X95439800Y-166272600D03*
X96506600Y-166272600D03*
%TD*%
D14*
%TO.C,C23*%
X101269800Y-151714200D03*
X101269800Y-150647400D03*
%TD*%
D13*
%TO.C,C24*%
X92679800Y-142948200D03*
X92679800Y-144015000D03*
%TD*%
D16*
%TO.C,C25*%
X96659000Y-163732600D03*
X97725800Y-163732600D03*
%TD*%
D15*
%TO.C,C26*%
X79405200Y-138890200D03*
X78338400Y-138890200D03*
%TD*%
D16*
%TO.C,C27*%
X82402400Y-138890200D03*
X83469200Y-138890200D03*
%TD*%
%TO.C,C28*%
X96659000Y-164875600D03*
X97725800Y-164875600D03*
%TD*%
D15*
%TO.C,C29*%
X75950800Y-138712400D03*
X74884000Y-138712400D03*
%TD*%
D16*
%TO.C,C30*%
X85566600Y-138200000D03*
X86633400Y-138200000D03*
%TD*%
D14*
%TO.C,C31*%
X75595200Y-142979600D03*
X75595200Y-141912800D03*
%TD*%
D15*
%TO.C,C32*%
X102971600Y-168808400D03*
X101904800Y-168808400D03*
%TD*%
D14*
%TO.C,C33*%
X100113400Y-164672400D03*
X100113400Y-163605600D03*
%TD*%
%TO.C,C34*%
X98310000Y-152455000D03*
X98310000Y-151388200D03*
%TD*%
%TO.C,C35*%
X97167000Y-151693000D03*
X97167000Y-150626200D03*
%TD*%
%TO.C,C36*%
X96024000Y-151312000D03*
X96024000Y-150245200D03*
%TD*%
D15*
%TO.C,C37*%
X94271400Y-149915000D03*
X93204600Y-149915000D03*
%TD*%
D16*
%TO.C,C38*%
X71912200Y-142827200D03*
X72979000Y-142827200D03*
%TD*%
D14*
%TO.C,C39*%
X81305400Y-147878800D03*
X81305400Y-146812000D03*
%TD*%
D16*
%TO.C,C40*%
X71912200Y-144071800D03*
X72979000Y-144071800D03*
%TD*%
%TO.C,C41*%
X98792600Y-161827600D03*
X99859400Y-161827600D03*
%TD*%
D15*
%TO.C,C42*%
X98589400Y-154715600D03*
X97522600Y-154715600D03*
%TD*%
%TO.C,C43*%
X72542400Y-145415000D03*
X71475600Y-145415000D03*
%TD*%
D14*
%TO.C,C44*%
X79679800Y-149961600D03*
X79679800Y-148894800D03*
%TD*%
D16*
%TO.C,C45*%
X102057200Y-155651200D03*
X103124000Y-155651200D03*
%TD*%
D15*
%TO.C,C46*%
X103581200Y-156794200D03*
X102514400Y-156794200D03*
%TD*%
D14*
%TO.C,C47*%
X112166400Y-157099000D03*
X112166400Y-156032200D03*
%TD*%
%TO.C,C48*%
X108737400Y-154533600D03*
X108737400Y-153466800D03*
%TD*%
D13*
%TO.C,C49*%
X100850000Y-155706200D03*
X100850000Y-156773000D03*
%TD*%
D16*
%TO.C,C50*%
X75144600Y-152920000D03*
X76211400Y-152920000D03*
%TD*%
D15*
%TO.C,C51*%
X107274800Y-159434000D03*
X106208000Y-159434000D03*
%TD*%
D13*
%TO.C,C52*%
X70000000Y-152666600D03*
X70000000Y-153733400D03*
%TD*%
D15*
%TO.C,C53*%
X71480800Y-147999800D03*
X70414000Y-147999800D03*
%TD*%
%TO.C,C54*%
X103657400Y-159664400D03*
X102590600Y-159664400D03*
%TD*%
D16*
%TO.C,C55*%
X79843600Y-153428000D03*
X80910400Y-153428000D03*
%TD*%
D14*
%TO.C,C56*%
X107391200Y-155397200D03*
X107391200Y-154330400D03*
%TD*%
%TO.C,C57*%
X76835000Y-149961600D03*
X76835000Y-148894800D03*
%TD*%
%TO.C,C58*%
X71614000Y-157644400D03*
X71614000Y-156577600D03*
%TD*%
D16*
%TO.C,C59*%
X79208600Y-155714000D03*
X80275400Y-155714000D03*
%TD*%
%TO.C,C60*%
X74509600Y-151396000D03*
X75576400Y-151396000D03*
%TD*%
D14*
%TO.C,C61*%
X76363800Y-156857000D03*
X76363800Y-155790200D03*
%TD*%
D16*
%TO.C,C62*%
X75017600Y-160032000D03*
X76084400Y-160032000D03*
%TD*%
D13*
%TO.C,C63*%
X73087200Y-161708400D03*
X73087200Y-162775200D03*
%TD*%
D15*
%TO.C,C64*%
X71663400Y-160810000D03*
X70596600Y-160810000D03*
%TD*%
D16*
%TO.C,C65*%
X69302600Y-158000000D03*
X70369400Y-158000000D03*
%TD*%
%TO.C,C66*%
X69302600Y-155841000D03*
X70369400Y-155841000D03*
%TD*%
D13*
%TO.C,C67*%
X121080200Y-163763000D03*
X121080200Y-164829800D03*
%TD*%
D14*
%TO.C,C68*%
X127462400Y-156254800D03*
X127462400Y-155188000D03*
%TD*%
D16*
%TO.C,C69*%
X128554600Y-154273600D03*
X129621400Y-154273600D03*
%TD*%
D13*
%TO.C,C70*%
X121080200Y-165795000D03*
X121080200Y-166861800D03*
%TD*%
%TO.C,C71*%
X100482400Y-118024400D03*
X100482400Y-119091200D03*
%TD*%
%TO.C,C72*%
X99466400Y-118024400D03*
X99466400Y-119091200D03*
%TD*%
%TO.C,C73*%
X103403400Y-118024400D03*
X103403400Y-119091200D03*
%TD*%
%TO.C,C74*%
X102387400Y-118024400D03*
X102387400Y-119091200D03*
%TD*%
%TO.C,C75*%
X105435400Y-118024400D03*
X105435400Y-119091200D03*
%TD*%
%TO.C,C76*%
X106451400Y-118024400D03*
X106451400Y-119091200D03*
%TD*%
D14*
%TO.C,C77*%
X101625400Y-106899200D03*
X101625400Y-105832400D03*
%TD*%
%TO.C,C78*%
X100609400Y-106899200D03*
X100609400Y-105832400D03*
%TD*%
D15*
%TO.C,C79*%
X97269300Y-110493300D03*
X96202500Y-110493300D03*
%TD*%
D14*
%TO.C,C80*%
X97243900Y-109375700D03*
X97243900Y-108308900D03*
%TD*%
D15*
%TO.C,C81*%
X96634300Y-113160300D03*
X95567500Y-113160300D03*
%TD*%
%TO.C,C82*%
X96634300Y-112144300D03*
X95567500Y-112144300D03*
%TD*%
%TO.C,C83*%
X96888300Y-115319300D03*
X95821500Y-115319300D03*
%TD*%
D13*
%TO.C,C84*%
X105981500Y-146951700D03*
X105981500Y-148018500D03*
%TD*%
%TO.C,C85*%
X109029500Y-146951700D03*
X109029500Y-148018500D03*
%TD*%
%TO.C,C86*%
X113728500Y-144665700D03*
X113728500Y-145732500D03*
%TD*%
D16*
%TO.C,C87*%
X113703100Y-141897100D03*
X114769900Y-141897100D03*
%TD*%
%TO.C,C88*%
X114465100Y-140881100D03*
X115531900Y-140881100D03*
%TD*%
%TO.C,C89*%
X113703100Y-139865100D03*
X114769900Y-139865100D03*
%TD*%
D14*
%TO.C,C90*%
X109918500Y-136842500D03*
X109918500Y-135775700D03*
%TD*%
%TO.C,C91*%
X110934500Y-136842500D03*
X110934500Y-135775700D03*
%TD*%
D15*
%TO.C,C92*%
X103593900Y-140119100D03*
X102527100Y-140119100D03*
%TD*%
%TO.C,C93*%
X103593900Y-141135100D03*
X102527100Y-141135100D03*
%TD*%
%TO.C,C94*%
X103593900Y-143548100D03*
X102527100Y-143548100D03*
%TD*%
D16*
%TO.C,C95*%
X91922600Y-123460000D03*
X92989400Y-123460000D03*
%TD*%
%TO.C,C96*%
X95046800Y-123460000D03*
X96113600Y-123460000D03*
%TD*%
D13*
%TO.C,C97*%
X96418400Y-118024400D03*
X96418400Y-119091200D03*
%TD*%
%TO.C,C98*%
X97434400Y-118024400D03*
X97434400Y-119091200D03*
%TD*%
%TO.C,C99*%
X106997500Y-147967700D03*
X106997500Y-149034500D03*
%TD*%
%TO.C,C100*%
X98450400Y-118024400D03*
X98450400Y-119091200D03*
%TD*%
D16*
%TO.C,C101*%
X100114100Y-123701300D03*
X101180900Y-123701300D03*
%TD*%
D13*
%TO.C,C102*%
X108013500Y-147967700D03*
X108013500Y-149034500D03*
%TD*%
D16*
%TO.C,C103*%
X103238300Y-123701300D03*
X104305100Y-123701300D03*
%TD*%
D13*
%TO.C,C104*%
X110045500Y-147967700D03*
X110045500Y-149034500D03*
%TD*%
D17*
%TO.C,C105*%
X87152600Y-125368400D03*
X87152600Y-123336400D03*
%TD*%
D14*
%TO.C,C106*%
X111950500Y-136842500D03*
X111950500Y-135775700D03*
%TD*%
%TO.C,C107*%
X104470200Y-122698000D03*
X104470200Y-121631200D03*
%TD*%
%TO.C,C108*%
X103200200Y-122698000D03*
X103200200Y-121631200D03*
%TD*%
%TO.C,C109*%
X101346000Y-122698000D03*
X101346000Y-121631200D03*
%TD*%
%TO.C,C110*%
X100076000Y-122698000D03*
X100076000Y-121631200D03*
%TD*%
D13*
%TO.C,C111*%
X111061500Y-147967700D03*
X111061500Y-149034500D03*
%TD*%
%TO.C,C112*%
X113728500Y-137807700D03*
X113728500Y-138874500D03*
%TD*%
%TO.C,C113*%
X123151200Y-164932600D03*
X123151200Y-165999400D03*
%TD*%
%TO.C,C114*%
X116776500Y-137807700D03*
X116776500Y-138874500D03*
%TD*%
D15*
%TO.C,C115*%
X123347600Y-161614200D03*
X122280800Y-161614200D03*
%TD*%
%TO.C,C116*%
X121391800Y-160547400D03*
X120325000Y-160547400D03*
%TD*%
%TO.C,C118*%
X161433400Y-155100000D03*
X160366600Y-155100000D03*
%TD*%
D14*
%TO.C,C119*%
X129247200Y-159014400D03*
X129247200Y-157947600D03*
%TD*%
%TO.C,C120*%
X131628000Y-161157000D03*
X131628000Y-160090200D03*
%TD*%
D15*
%TO.C,C121*%
X122560200Y-162706400D03*
X121493400Y-162706400D03*
%TD*%
%TO.C,C122*%
X126370200Y-158312200D03*
X125303400Y-158312200D03*
%TD*%
D16*
%TO.C,C123*%
X108458000Y-113058700D03*
X109524800Y-113058700D03*
%TD*%
%TO.C,C124*%
X108458000Y-112042700D03*
X109524800Y-112042700D03*
%TD*%
D15*
%TO.C,C125*%
X174000400Y-117793200D03*
X172933600Y-117793200D03*
%TD*%
D18*
%TO.C,C126*%
X168514000Y-117412200D03*
X170546000Y-117412200D03*
%TD*%
%TO.C,C127*%
X168514000Y-115253200D03*
X170546000Y-115253200D03*
%TD*%
D19*
%TO.C,C128*%
X151223451Y-123656520D03*
X150469109Y-122902178D03*
%TD*%
%TO.C,C129*%
X144308653Y-125721979D03*
X143554311Y-124967637D03*
%TD*%
%TO.C,C130*%
X137932672Y-132097961D03*
X137178330Y-131343619D03*
%TD*%
D15*
%TO.C,C131*%
X133431400Y-137001600D03*
X132364600Y-137001600D03*
%TD*%
D20*
%TO.C,C132*%
X134875371Y-145336629D03*
X134121029Y-146090971D03*
%TD*%
%TO.C,C133*%
X140806354Y-151100182D03*
X140052012Y-151854524D03*
%TD*%
%TO.C,C134*%
X145386284Y-155680113D03*
X144631942Y-156434455D03*
%TD*%
D21*
%TO.C,C135*%
X153432593Y-155320903D03*
X154186935Y-156075245D03*
%TD*%
%TO.C,C136*%
X159090154Y-149663341D03*
X159844496Y-150417683D03*
%TD*%
%TO.C,C137*%
X160526995Y-148226500D03*
X161281337Y-148980842D03*
%TD*%
%TO.C,C138*%
X162592454Y-146161041D03*
X163346796Y-146915383D03*
%TD*%
%TO.C,C139*%
X164029295Y-144724200D03*
X164783637Y-145478542D03*
%TD*%
%TO.C,C140*%
X164568111Y-136103154D03*
X165322453Y-136857496D03*
%TD*%
D22*
%TO.C,C141*%
X156934893Y-127967043D03*
X157689235Y-127212701D03*
%TD*%
%TO.C,C142*%
X159718772Y-130930527D03*
X160473114Y-130176185D03*
%TD*%
D23*
%TO.C,C143*%
X174483000Y-111062200D03*
X174483000Y-113094200D03*
%TD*%
D15*
%TO.C,C144*%
X154152600Y-160578800D03*
X153085800Y-160578800D03*
%TD*%
D24*
%TO.C,C145*%
X170546000Y-108649200D03*
X168514000Y-108649200D03*
%TD*%
%TO.C,C146*%
X170546000Y-106490200D03*
X168514000Y-106490200D03*
%TD*%
D13*
%TO.C,C147*%
X172832000Y-111544800D03*
X172832000Y-112611600D03*
%TD*%
%TO.C,C148*%
X137668000Y-117627400D03*
X137668000Y-118694200D03*
%TD*%
D16*
%TO.C,C149*%
X138054200Y-111703200D03*
X139121000Y-111703200D03*
%TD*%
D14*
%TO.C,C150*%
X130810000Y-106121200D03*
X130810000Y-105054400D03*
%TD*%
D16*
%TO.C,C152*%
X123881000Y-128010000D03*
X124947800Y-128010000D03*
%TD*%
D15*
%TO.C,C153*%
X115087400Y-117017800D03*
X114020600Y-117017800D03*
%TD*%
%TO.C,C154*%
X119029600Y-126689200D03*
X117962800Y-126689200D03*
%TD*%
D24*
%TO.C,C155*%
X178316000Y-117800000D03*
X176284000Y-117800000D03*
%TD*%
D15*
%TO.C,C156*%
X123296800Y-158998000D03*
X122230000Y-158998000D03*
%TD*%
D22*
%TO.C,C157*%
X163939493Y-134612432D03*
X164693835Y-133858090D03*
%TD*%
D21*
%TO.C,C158*%
X164478308Y-130086383D03*
X165232650Y-130840725D03*
%TD*%
D15*
%TO.C,C159*%
X131526400Y-150971600D03*
X130459600Y-150971600D03*
%TD*%
%TO.C,C160*%
X76084400Y-161810000D03*
X75017600Y-161810000D03*
%TD*%
D13*
%TO.C,C161*%
X78105700Y-167651400D03*
X78105700Y-168718200D03*
%TD*%
D16*
%TO.C,C162*%
X76160600Y-163080000D03*
X77227400Y-163080000D03*
%TD*%
D13*
%TO.C,C163*%
X70000000Y-150566600D03*
X70000000Y-151633400D03*
%TD*%
D16*
%TO.C,C164*%
X161466600Y-151900000D03*
X162533400Y-151900000D03*
%TD*%
D15*
%TO.C,C165*%
X135234800Y-166795800D03*
X134168000Y-166795800D03*
%TD*%
D13*
%TO.C,C166*%
X119715400Y-165602000D03*
X119715400Y-166668800D03*
%TD*%
%TO.C,C167*%
X81793200Y-119577200D03*
X81793200Y-120644000D03*
%TD*%
D15*
%TO.C,C168*%
X140289400Y-127502000D03*
X139222600Y-127502000D03*
%TD*%
%TO.C,C169*%
X127914400Y-169900600D03*
X126847600Y-169900600D03*
%TD*%
D14*
%TO.C,C170*%
X122500000Y-168733400D03*
X122500000Y-167666600D03*
%TD*%
D13*
%TO.C,C171*%
X72617400Y-167344400D03*
X72617400Y-168411200D03*
%TD*%
D14*
%TO.C,D1*%
X66200000Y-162033400D03*
X66200000Y-160966600D03*
%TD*%
%TO.C,D3*%
X173030000Y-165906800D03*
X173030000Y-164840000D03*
%TD*%
D15*
%TO.C,D9*%
X176211200Y-151000000D03*
X175144400Y-151000000D03*
%TD*%
D24*
%TO.C,FB1*%
X172016000Y-122050000D03*
X169984000Y-122050000D03*
%TD*%
%TO.C,FB2*%
X84937600Y-122529600D03*
X82905600Y-122529600D03*
%TD*%
%TO.C,FB3*%
X172016000Y-127800000D03*
X169984000Y-127800000D03*
%TD*%
D25*
%TO.C,J1*%
X178800000Y-128125000D03*
D26*
X175770000Y-126830000D03*
D27*
X175770000Y-121510000D03*
D26*
X175770000Y-121170000D03*
D27*
X175770000Y-126490000D03*
D28*
X178850000Y-128000000D03*
D29*
X178850000Y-123062500D03*
D30*
X177425000Y-126987500D03*
D28*
X178850000Y-120000000D03*
D29*
X178850000Y-124937500D03*
D30*
X177425000Y-121012500D03*
D25*
X178800000Y-119875000D03*
D31*
X175975000Y-122700000D03*
X175975000Y-123350000D03*
X175975000Y-124000000D03*
X175975000Y-124650000D03*
X175975000Y-125300000D03*
%TD*%
D32*
%TO.C,J2*%
X105000000Y-170950000D03*
X75000000Y-133050000D03*
X99000000Y-170950000D03*
D33*
X116875000Y-170950000D03*
D32*
X81000000Y-170950000D03*
X99000000Y-133050000D03*
D34*
X67700000Y-146000000D03*
X118300000Y-146000000D03*
X67700000Y-140000000D03*
X118300000Y-152000000D03*
D32*
X105000000Y-133050000D03*
X75000000Y-170950000D03*
X81000000Y-133050000D03*
D35*
X67700000Y-134225000D03*
X118300000Y-169775000D03*
D34*
X67700000Y-152000000D03*
D33*
X69125000Y-133050000D03*
D32*
X111000000Y-170950000D03*
D34*
X118300000Y-158000000D03*
D35*
X67700000Y-169775000D03*
D32*
X87000000Y-170950000D03*
X93000000Y-133050000D03*
D33*
X69125000Y-170950000D03*
X116875000Y-133050000D03*
D34*
X118300000Y-140000000D03*
X118300000Y-164000000D03*
X67700000Y-164000000D03*
X67700000Y-158000000D03*
D32*
X111000000Y-133050000D03*
X93000000Y-170950000D03*
D35*
X118300000Y-134225000D03*
D32*
X87000000Y-133050000D03*
%TD*%
D36*
%TO.C,J4*%
X61800000Y-104000000D03*
D37*
X64000000Y-104000000D03*
D36*
X62450000Y-105550000D03*
X64000000Y-106200000D03*
X64000000Y-101800000D03*
X62450000Y-102450000D03*
X65550000Y-105550000D03*
X65550000Y-102450000D03*
X66200000Y-104000000D03*
%TD*%
%TO.C,J5*%
X61800000Y-171000000D03*
X62450000Y-172550000D03*
X65550000Y-172550000D03*
X65550000Y-169450000D03*
X64000000Y-173200000D03*
X66200000Y-171000000D03*
X64000000Y-168800000D03*
X62450000Y-169450000D03*
D37*
X64000000Y-171000000D03*
%TD*%
D36*
%TO.C,J6*%
X174450000Y-169450000D03*
X176000000Y-173200000D03*
X176000000Y-168800000D03*
X173800000Y-171000000D03*
D37*
X176000000Y-171000000D03*
D36*
X177550000Y-169450000D03*
X174450000Y-172550000D03*
X177550000Y-172550000D03*
X178200000Y-171000000D03*
%TD*%
%TO.C,J7*%
X177550000Y-102450000D03*
X176000000Y-106200000D03*
X173800000Y-104000000D03*
X174450000Y-105550000D03*
X177550000Y-105550000D03*
X176000000Y-101800000D03*
X178200000Y-104000000D03*
X174450000Y-102450000D03*
D37*
X176000000Y-104000000D03*
%TD*%
D36*
%TO.C,J8*%
X126000000Y-101800000D03*
X127550000Y-102450000D03*
X126000000Y-106200000D03*
X128200000Y-104000000D03*
X127550000Y-105550000D03*
D37*
X126000000Y-104000000D03*
D36*
X124450000Y-105550000D03*
X124450000Y-102450000D03*
X123800000Y-104000000D03*
%TD*%
%TO.C,J9*%
X131000000Y-146200000D03*
X131000000Y-141800000D03*
X132550000Y-145550000D03*
X132550000Y-142450000D03*
D37*
X131000000Y-144000000D03*
D36*
X128800000Y-144000000D03*
X129450000Y-142450000D03*
X133200000Y-144000000D03*
X129450000Y-145550000D03*
%TD*%
D38*
%TO.C,J10*%
X114000000Y-129500000D03*
%TD*%
D16*
%TO.C,L1*%
X94627000Y-162335600D03*
X95693800Y-162335600D03*
%TD*%
D39*
%TO.C,L2*%
X98691000Y-159033600D03*
X98691000Y-160557600D03*
%TD*%
D40*
%TO.C,L3*%
X98691000Y-157509600D03*
X98691000Y-155985600D03*
%TD*%
D13*
%TO.C,L4*%
X97421000Y-157738200D03*
X97421000Y-158805000D03*
%TD*%
D41*
%TO.C,L5*%
X72376000Y-152920000D03*
X73900000Y-152920000D03*
%TD*%
D16*
%TO.C,L6*%
X106972100Y-150025100D03*
X108038900Y-150025100D03*
%TD*%
%TO.C,L7*%
X106972100Y-146977100D03*
X108038900Y-146977100D03*
%TD*%
%TO.C,L8*%
X110020100Y-150025100D03*
X111086900Y-150025100D03*
%TD*%
%TO.C,L9*%
X110020100Y-146977100D03*
X111086900Y-146977100D03*
%TD*%
D42*
%TO.C,L10*%
X165212000Y-114361660D03*
X165212000Y-117160740D03*
%TD*%
%TO.C,L11*%
X165212000Y-106741660D03*
X165212000Y-109540740D03*
%TD*%
D40*
%TO.C,L12*%
X77329000Y-161683000D03*
X77329000Y-160159000D03*
%TD*%
%TO.C,L13*%
X69400000Y-162562000D03*
X69400000Y-161038000D03*
%TD*%
D43*
%TO.C,P2*%
X176875000Y-145000000D03*
D44*
X176875000Y-148492500D03*
X176875000Y-141507500D03*
%TD*%
D45*
%TO.C,P3*%
X145090000Y-117850000D03*
D46*
X145090000Y-120390000D03*
%TD*%
D47*
%TO.C,P4*%
X63125000Y-161000000D03*
D48*
X63125000Y-157507500D03*
X63125000Y-164492500D03*
%TD*%
D49*
%TO.C,P5*%
X91750000Y-105150000D03*
D46*
X91750000Y-107690000D03*
X89210000Y-105150000D03*
X89210000Y-107690000D03*
X86670000Y-105150000D03*
X86670000Y-107690000D03*
%TD*%
D50*
%TO.C,P6*%
X97155000Y-160070800D03*
%TD*%
%TO.C,P7*%
X88722200Y-161163000D03*
%TD*%
D49*
%TO.C,P9*%
X106990000Y-128010000D03*
D46*
X106990000Y-130550000D03*
X104450000Y-128010000D03*
X104450000Y-130550000D03*
X101910000Y-128010000D03*
X101910000Y-130550000D03*
X99370000Y-128010000D03*
X99370000Y-130550000D03*
X96830000Y-128010000D03*
X96830000Y-130550000D03*
X94290000Y-128010000D03*
X94290000Y-130550000D03*
X91750000Y-128010000D03*
X91750000Y-130550000D03*
X89210000Y-128010000D03*
X89210000Y-130550000D03*
%TD*%
D50*
%TO.C,P13*%
X87762200Y-159175800D03*
%TD*%
%TO.C,P14*%
X114991000Y-143707200D03*
%TD*%
%TO.C,P15*%
X130175000Y-169240200D03*
%TD*%
D43*
%TO.C,P16*%
X176875000Y-163000000D03*
D44*
X176875000Y-166492500D03*
X176875000Y-159507500D03*
%TD*%
D50*
%TO.C,P17*%
X87279600Y-155696000D03*
%TD*%
%TO.C,P18*%
X133350000Y-165100000D03*
%TD*%
%TO.C,P19*%
X96855400Y-161665000D03*
%TD*%
D51*
%TO.C,P20*%
X173030000Y-155950000D03*
D46*
X170490000Y-155950000D03*
X173030000Y-153410000D03*
X170490000Y-153410000D03*
X173030000Y-150870000D03*
X170490000Y-150870000D03*
X173030000Y-148330000D03*
X170490000Y-148330000D03*
X173030000Y-145790000D03*
X170490000Y-145790000D03*
X173030000Y-143250000D03*
X170490000Y-143250000D03*
X173030000Y-140710000D03*
X170490000Y-140710000D03*
X173030000Y-138170000D03*
X170490000Y-138170000D03*
X173030000Y-135630000D03*
X170490000Y-135630000D03*
X173030000Y-133090000D03*
X170490000Y-133090000D03*
X173030000Y-130550000D03*
X170490000Y-130550000D03*
%TD*%
D50*
%TO.C,P21*%
X87330400Y-157448600D03*
%TD*%
D49*
%TO.C,P22*%
X167950000Y-163570000D03*
D46*
X167950000Y-166110000D03*
X165410000Y-163570000D03*
X165410000Y-166110000D03*
X162870000Y-163570000D03*
X162870000Y-166110000D03*
X160330000Y-163570000D03*
X160330000Y-166110000D03*
X157790000Y-163570000D03*
X157790000Y-166110000D03*
X155250000Y-163570000D03*
X155250000Y-166110000D03*
X152710000Y-163570000D03*
X152710000Y-166110000D03*
X150170000Y-163570000D03*
X150170000Y-166110000D03*
X147630000Y-163570000D03*
X147630000Y-166110000D03*
X145090000Y-163570000D03*
X145090000Y-166110000D03*
X142550000Y-163570000D03*
X142550000Y-166110000D03*
X140010000Y-163570000D03*
X140010000Y-166110000D03*
X137470000Y-163570000D03*
X137470000Y-166110000D03*
%TD*%
D50*
%TO.C,P23*%
X155732600Y-123260200D03*
%TD*%
%TO.C,P24*%
X155727400Y-125196600D03*
%TD*%
D52*
%TO.C,P25*%
X137470000Y-158490000D03*
D46*
X140010000Y-158490000D03*
X142550000Y-158490000D03*
X145090000Y-158490000D03*
X147630000Y-158490000D03*
X150170000Y-158490000D03*
%TD*%
D53*
%TO.C,P26*%
X151662600Y-114466600D03*
D54*
X152932600Y-114466600D03*
X151662600Y-115736600D03*
X152932600Y-115736600D03*
X151662600Y-117006600D03*
X152932600Y-117006600D03*
X151662600Y-118276600D03*
X152932600Y-118276600D03*
X151662600Y-119546600D03*
X152932600Y-119546600D03*
%TD*%
D50*
%TO.C,P27*%
X94290000Y-148304600D03*
%TD*%
D51*
%TO.C,P28*%
X124770000Y-155950000D03*
D46*
X122230000Y-155950000D03*
X124770000Y-153410000D03*
X122230000Y-153410000D03*
X124770000Y-150870000D03*
X122230000Y-150870000D03*
X124770000Y-148330000D03*
X122230000Y-148330000D03*
X124770000Y-145790000D03*
X122230000Y-145790000D03*
X124770000Y-143250000D03*
X122230000Y-143250000D03*
X124770000Y-140710000D03*
X122230000Y-140710000D03*
X124770000Y-138170000D03*
X122230000Y-138170000D03*
X124770000Y-135630000D03*
X122230000Y-135630000D03*
X124770000Y-133090000D03*
X122230000Y-133090000D03*
X124770000Y-130550000D03*
X122230000Y-130550000D03*
%TD*%
D52*
%TO.C,P29*%
X129850000Y-133090000D03*
D46*
X132390000Y-133090000D03*
%TD*%
D49*
%TO.C,P30*%
X160330000Y-105150000D03*
D46*
X160330000Y-107690000D03*
X157790000Y-105150000D03*
X157790000Y-107690000D03*
X155250000Y-105150000D03*
X155250000Y-107690000D03*
X152710000Y-105150000D03*
X152710000Y-107690000D03*
X150170000Y-105150000D03*
X150170000Y-107690000D03*
X147630000Y-105150000D03*
X147630000Y-107690000D03*
X145090000Y-105150000D03*
X145090000Y-107690000D03*
X142550000Y-105150000D03*
X142550000Y-107690000D03*
X140010000Y-105150000D03*
X140010000Y-107690000D03*
X137470000Y-105150000D03*
X137470000Y-107690000D03*
%TD*%
D50*
%TO.C,P31*%
X96474400Y-153486200D03*
%TD*%
%TO.C,P32*%
X99720400Y-151130000D03*
%TD*%
%TO.C,P33*%
X99852600Y-153511600D03*
%TD*%
%TO.C,P34*%
X109758600Y-163366800D03*
%TD*%
%TO.C,P35*%
X110000000Y-169400000D03*
%TD*%
%TO.C,P37*%
X133710800Y-155746800D03*
%TD*%
%TO.C,P38*%
X134015600Y-150336600D03*
%TD*%
%TO.C,P39*%
X98328600Y-106318400D03*
%TD*%
%TO.C,P40*%
X136454000Y-128264000D03*
%TD*%
%TO.C,P41*%
X141534000Y-128518000D03*
%TD*%
%TO.C,P43*%
X102926000Y-161995200D03*
%TD*%
%TO.C,P44*%
X86060400Y-144799400D03*
%TD*%
%TO.C,P46*%
X81463000Y-149295200D03*
%TD*%
%TO.C,P47*%
X73335000Y-141167200D03*
%TD*%
%TO.C,P48*%
X82123400Y-154832400D03*
%TD*%
%TO.C,P49*%
X78181200Y-150037800D03*
%TD*%
%TO.C,P50*%
X144023200Y-154349800D03*
%TD*%
%TO.C,P51*%
X74706600Y-166389400D03*
%TD*%
%TO.C,P52*%
X71983600Y-146710400D03*
%TD*%
%TO.C,P53*%
X132009000Y-135528400D03*
%TD*%
%TO.C,P54*%
X95636200Y-108833000D03*
%TD*%
%TO.C,P55*%
X103307000Y-145688400D03*
%TD*%
%TO.C,P56*%
X104551600Y-146983800D03*
%TD*%
%TO.C,P57*%
X120045600Y-143935800D03*
%TD*%
%TO.C,P58*%
X111333400Y-123463400D03*
%TD*%
%TO.C,P59*%
X128554600Y-152673400D03*
%TD*%
%TO.C,P60*%
X131551800Y-156737400D03*
%TD*%
%TO.C,P61*%
X111968400Y-119577200D03*
%TD*%
%TO.C,P62*%
X113893600Y-111455200D03*
%TD*%
%TO.C,P63*%
X113563400Y-109474000D03*
%TD*%
%TO.C,P64*%
X103936800Y-105283000D03*
%TD*%
%TO.C,P65*%
X111485800Y-114294000D03*
%TD*%
%TO.C,P66*%
X119436000Y-107461400D03*
%TD*%
%TO.C,P67*%
X166146600Y-138195400D03*
%TD*%
%TO.C,P68*%
X158171000Y-151784400D03*
%TD*%
%TO.C,P69*%
X158348800Y-120440800D03*
%TD*%
%TO.C,P70*%
X67035800Y-129838800D03*
%TD*%
%TO.C,P71*%
X167162600Y-129076800D03*
%TD*%
%TO.C,P72*%
X162641400Y-129407000D03*
%TD*%
%TO.C,P73*%
X139781400Y-122218800D03*
%TD*%
%TO.C,P74*%
X142138400Y-123088400D03*
%TD*%
%TO.C,P75*%
X147249000Y-115487800D03*
%TD*%
%TO.C,P76*%
X142397600Y-120821800D03*
%TD*%
%TO.C,P77*%
X142194400Y-114675000D03*
%TD*%
%TO.C,P78*%
X133710800Y-126562200D03*
%TD*%
%TO.C,P79*%
X135082400Y-133420200D03*
%TD*%
D45*
%TO.C,P80*%
X178110000Y-130550000D03*
D46*
X178110000Y-133090000D03*
%TD*%
D50*
%TO.C,P81*%
X167035600Y-158032800D03*
%TD*%
%TO.C,P82*%
X154259400Y-158286800D03*
%TD*%
%TO.C,P83*%
X112044600Y-159658400D03*
%TD*%
%TO.C,P84*%
X102773600Y-166999000D03*
%TD*%
%TO.C,P85*%
X97185600Y-148406200D03*
%TD*%
%TO.C,P86*%
X91572200Y-140811600D03*
%TD*%
%TO.C,P87*%
X74400000Y-164400000D03*
%TD*%
%TO.C,P88*%
X81894800Y-151809800D03*
%TD*%
%TO.C,P89*%
X87127200Y-161995200D03*
%TD*%
%TO.C,P90*%
X69448800Y-146577400D03*
%TD*%
%TO.C,P91*%
X105262800Y-152622600D03*
%TD*%
%TO.C,P92*%
X113441600Y-151581200D03*
%TD*%
D55*
%TO.C,Q1*%
X73265000Y-149364000D03*
X71487000Y-149364000D03*
X72376000Y-151396000D03*
%TD*%
D56*
%TO.C,Q2*%
X76327700Y-166406800D03*
X78105700Y-166406800D03*
X77216700Y-164374800D03*
%TD*%
D55*
%TO.C,Q3*%
X85933400Y-118662800D03*
X84155400Y-118662800D03*
X85044400Y-120694800D03*
%TD*%
D56*
%TO.C,Q4*%
X69728400Y-166293800D03*
X71506400Y-166293800D03*
X70617400Y-164261800D03*
%TD*%
D57*
%TO.C,Q5*%
X167315000Y-122447400D03*
X167315000Y-120669400D03*
X165283000Y-121558400D03*
%TD*%
D13*
%TO.C,R1*%
X89064400Y-152150200D03*
X89064400Y-153217000D03*
%TD*%
D15*
%TO.C,R2*%
X90232800Y-149635600D03*
X89166000Y-149635600D03*
%TD*%
D14*
%TO.C,R3*%
X91350400Y-153217000D03*
X91350400Y-152150200D03*
%TD*%
D13*
%TO.C,R4*%
X94373000Y-151794600D03*
X94373000Y-152861400D03*
%TD*%
D21*
%TO.C,R5*%
X137981829Y-130553829D03*
X138736171Y-131308171D03*
%TD*%
%TO.C,R6*%
X138743829Y-129791829D03*
X139498171Y-130546171D03*
%TD*%
D14*
%TO.C,R7*%
X67874000Y-124479400D03*
X67874000Y-123412600D03*
%TD*%
D13*
%TO.C,R8*%
X91821000Y-121402600D03*
X91821000Y-122469400D03*
%TD*%
%TO.C,R9*%
X93091000Y-121402600D03*
X93091000Y-122469400D03*
%TD*%
%TO.C,R10*%
X94945200Y-121402600D03*
X94945200Y-122469400D03*
%TD*%
D15*
%TO.C,R11*%
X146563200Y-123387200D03*
X145496400Y-123387200D03*
%TD*%
D14*
%TO.C,R12*%
X167162600Y-131515200D03*
X167162600Y-130448400D03*
%TD*%
D13*
%TO.C,R13*%
X96215200Y-121402600D03*
X96215200Y-122469400D03*
%TD*%
%TO.C,R14*%
X96215200Y-124450600D03*
X96215200Y-125517400D03*
%TD*%
%TO.C,R15*%
X94945200Y-124450600D03*
X94945200Y-125517400D03*
%TD*%
%TO.C,R16*%
X93091000Y-124450600D03*
X93091000Y-125517400D03*
%TD*%
%TO.C,R17*%
X91821000Y-124450600D03*
X91821000Y-125517400D03*
%TD*%
D16*
%TO.C,R18*%
X62768600Y-133344000D03*
X63835400Y-133344000D03*
%TD*%
D14*
%TO.C,R19*%
X68966200Y-112592200D03*
X68966200Y-111525400D03*
%TD*%
D13*
%TO.C,R20*%
X100012500Y-124691900D03*
X100012500Y-125758700D03*
%TD*%
%TO.C,R21*%
X101282500Y-124691900D03*
X101282500Y-125758700D03*
%TD*%
%TO.C,R22*%
X103136700Y-124691900D03*
X103136700Y-125758700D03*
%TD*%
%TO.C,R23*%
X104406700Y-124691900D03*
X104406700Y-125758700D03*
%TD*%
D15*
%TO.C,R24*%
X76226100Y-168819800D03*
X75159300Y-168819800D03*
%TD*%
D16*
%TO.C,R25*%
X114719100Y-138849100D03*
X115785900Y-138849100D03*
%TD*%
%TO.C,R26*%
X114719100Y-137833100D03*
X115785900Y-137833100D03*
%TD*%
%TO.C,R27*%
X133634600Y-161309400D03*
X134701400Y-161309400D03*
%TD*%
%TO.C,R28*%
X132898000Y-158185200D03*
X133964800Y-158185200D03*
%TD*%
D15*
%TO.C,R29*%
X74433400Y-147967000D03*
X73366600Y-147967000D03*
%TD*%
D14*
%TO.C,R30*%
X68966200Y-125546200D03*
X68966200Y-124479400D03*
%TD*%
D13*
%TO.C,R31*%
X127437000Y-157296200D03*
X127437000Y-158363000D03*
%TD*%
%TO.C,R32*%
X128554600Y-155873800D03*
X128554600Y-156940600D03*
%TD*%
D14*
%TO.C,R33*%
X134930000Y-165729000D03*
X134930000Y-164662200D03*
%TD*%
D16*
%TO.C,R34*%
X123342400Y-160121600D03*
X124409200Y-160121600D03*
%TD*%
D24*
%TO.C,R35*%
X178316000Y-115600000D03*
X176284000Y-115600000D03*
%TD*%
D16*
%TO.C,R36*%
X70084000Y-167677800D03*
X71150800Y-167677800D03*
%TD*%
%TO.C,R37*%
X160304600Y-124936600D03*
X161371400Y-124936600D03*
%TD*%
%TO.C,R41*%
X139222600Y-126232000D03*
X140289400Y-126232000D03*
%TD*%
D15*
%TO.C,R46*%
X174000400Y-115761200D03*
X172933600Y-115761200D03*
%TD*%
%TO.C,R47*%
X174000400Y-116777200D03*
X172933600Y-116777200D03*
%TD*%
%TO.C,R48*%
X168033400Y-151600000D03*
X166966600Y-151600000D03*
%TD*%
D13*
%TO.C,R49*%
X67874000Y-110458600D03*
X67874000Y-111525400D03*
%TD*%
D15*
%TO.C,R51*%
X160457000Y-119348600D03*
X159390200Y-119348600D03*
%TD*%
D14*
%TO.C,R52*%
X177150000Y-109309600D03*
X177150000Y-108242800D03*
%TD*%
D16*
%TO.C,R54*%
X162900600Y-111951200D03*
X163967400Y-111951200D03*
%TD*%
D15*
%TO.C,R55*%
X174000400Y-109411200D03*
X172933600Y-109411200D03*
%TD*%
%TO.C,R56*%
X174000400Y-108395200D03*
X172933600Y-108395200D03*
%TD*%
D16*
%TO.C,R57*%
X165141600Y-125275000D03*
X166208400Y-125275000D03*
%TD*%
%TO.C,R58*%
X165141600Y-124475000D03*
X166208400Y-124475000D03*
%TD*%
D15*
%TO.C,R59*%
X141559400Y-156381800D03*
X140492600Y-156381800D03*
%TD*%
D16*
%TO.C,R62*%
X159441000Y-121660000D03*
X160507800Y-121660000D03*
%TD*%
D13*
%TO.C,R63*%
X156189800Y-119501000D03*
X156189800Y-120567800D03*
%TD*%
D14*
%TO.C,R64*%
X155046800Y-121660000D03*
X155046800Y-120593200D03*
%TD*%
D15*
%TO.C,R65*%
X160533200Y-122828400D03*
X159466400Y-122828400D03*
%TD*%
%TO.C,R66*%
X157383600Y-116808600D03*
X156316800Y-116808600D03*
%TD*%
%TO.C,R67*%
X140289400Y-123692000D03*
X139222600Y-123692000D03*
%TD*%
%TO.C,R68*%
X140289400Y-124962000D03*
X139222600Y-124962000D03*
%TD*%
D22*
%TO.C,R69*%
X157743116Y-128775266D03*
X158497458Y-128020924D03*
%TD*%
D16*
%TO.C,R72*%
X62768600Y-137916000D03*
X63835400Y-137916000D03*
%TD*%
%TO.C,R73*%
X62768600Y-142488000D03*
X63835400Y-142488000D03*
%TD*%
%TO.C,R74*%
X62768600Y-147060000D03*
X63835400Y-147060000D03*
%TD*%
%TO.C,R75*%
X62514600Y-116707000D03*
X63581400Y-116707000D03*
%TD*%
%TO.C,R76*%
X62768600Y-129407000D03*
X63835400Y-129407000D03*
%TD*%
D15*
%TO.C,R77*%
X140868400Y-114731800D03*
X139801600Y-114731800D03*
%TD*%
%TO.C,R78*%
X140868400Y-115747800D03*
X139801600Y-115747800D03*
%TD*%
%TO.C,R79*%
X140868400Y-116763800D03*
X139801600Y-116763800D03*
%TD*%
%TO.C,R80*%
X140868400Y-117779800D03*
X139801600Y-117779800D03*
%TD*%
%TO.C,R81*%
X140868400Y-118795800D03*
X139801600Y-118795800D03*
%TD*%
D13*
%TO.C,R85*%
X131577200Y-168751600D03*
X131577200Y-169818400D03*
%TD*%
D15*
%TO.C,R86*%
X140868400Y-119811800D03*
X139801600Y-119811800D03*
%TD*%
%TO.C,R87*%
X140868400Y-120827800D03*
X139801600Y-120827800D03*
%TD*%
D14*
%TO.C,R88*%
X134345800Y-129000600D03*
X134345800Y-127933800D03*
%TD*%
%TO.C,R89*%
X132816600Y-129032000D03*
X132816600Y-127965200D03*
%TD*%
%TO.C,R90*%
X131800600Y-129032000D03*
X131800600Y-127965200D03*
%TD*%
%TO.C,R91*%
X130784600Y-129032000D03*
X130784600Y-127965200D03*
%TD*%
D15*
%TO.C,R93*%
X141559400Y-155188000D03*
X140492600Y-155188000D03*
%TD*%
%TO.C,R94*%
X132745600Y-162427000D03*
X131678800Y-162427000D03*
%TD*%
D14*
%TO.C,R96*%
X129768600Y-129032000D03*
X129768600Y-127965200D03*
%TD*%
%TO.C,R98*%
X128707000Y-129051400D03*
X128707000Y-127984600D03*
%TD*%
%TO.C,R99*%
X127691000Y-129051400D03*
X127691000Y-127984600D03*
%TD*%
%TO.C,R100*%
X126675000Y-129051400D03*
X126675000Y-127984600D03*
%TD*%
D15*
%TO.C,R104*%
X128637600Y-168006000D03*
X127570800Y-168006000D03*
%TD*%
D14*
%TO.C,R105*%
X131787200Y-165745400D03*
X131787200Y-164678600D03*
%TD*%
D58*
%TO.C,SW1*%
X65190000Y-120895000D03*
X65190000Y-127905000D03*
D25*
X62700000Y-122150000D03*
X62700000Y-126650000D03*
%TD*%
D58*
%TO.C,SW2*%
X65190000Y-107895000D03*
X65190000Y-114905000D03*
D25*
X62700000Y-109150000D03*
X62700000Y-113650000D03*
%TD*%
D59*
%TO.C,T1*%
X95655700Y-164774000D03*
X95655700Y-164113600D03*
X95655700Y-163453200D03*
X94665100Y-163453200D03*
X94665100Y-164113600D03*
X94665100Y-164774000D03*
%TD*%
D60*
%TO.C,T2*%
X101383400Y-157776300D03*
X100723000Y-157776300D03*
X100062600Y-157776300D03*
X100062600Y-158766900D03*
X100723000Y-158766900D03*
X101383400Y-158766900D03*
%TD*%
D61*
%TO.C,T3*%
X107929680Y-152049480D03*
X107929680Y-151549100D03*
X107929680Y-151048720D03*
X107081320Y-151048720D03*
X107081320Y-151549100D03*
X107081320Y-152049480D03*
%TD*%
%TO.C,T4*%
X110977680Y-152049480D03*
X110977680Y-151549100D03*
X110977680Y-151048720D03*
X110129320Y-151048720D03*
X110129320Y-151549100D03*
X110129320Y-152049480D03*
%TD*%
D62*
%TO.C,U1*%
X105681920Y-166408700D03*
X105184080Y-166408700D03*
D63*
X104881000Y-167052200D03*
D62*
X105184080Y-167695700D03*
X105681920Y-167695700D03*
D63*
X105985000Y-167052200D03*
%TD*%
D64*
%TO.C,U2*%
X89242300Y-144629680D03*
X89242300Y-145127520D03*
D65*
X89885800Y-145430600D03*
D64*
X90529300Y-145127520D03*
X90529300Y-144629680D03*
D65*
X89885800Y-144326600D03*
%TD*%
D66*
%TO.C,U3*%
X80405960Y-142603680D03*
X80405960Y-143304720D03*
X81655640Y-143304720D03*
X81655640Y-142603680D03*
%TD*%
D67*
%TO.C,U4*%
X92620400Y-157763600D03*
D68*
X94370400Y-155088600D03*
X93870400Y-155088600D03*
X93370400Y-155088600D03*
X92870400Y-155088600D03*
X92370400Y-155088600D03*
X91870400Y-155088600D03*
X91370400Y-155088600D03*
X90870400Y-155088600D03*
D69*
X89945400Y-156013600D03*
X89945400Y-156513600D03*
X89945400Y-157013600D03*
X89945400Y-157513600D03*
X89945400Y-158013600D03*
X89945400Y-158513600D03*
X89945400Y-159013600D03*
X89945400Y-159513600D03*
D68*
X90870400Y-160438600D03*
X91370400Y-160438600D03*
X91870400Y-160438600D03*
X92370400Y-160438600D03*
X92870400Y-160438600D03*
X93370400Y-160438600D03*
X93870400Y-160438600D03*
X94370400Y-160438600D03*
D69*
X95295400Y-159513600D03*
X95295400Y-159013600D03*
X95295400Y-158513600D03*
X95295400Y-158013600D03*
X95295400Y-157513600D03*
X95295400Y-157013600D03*
X95295400Y-156513600D03*
X95295400Y-156013600D03*
%TD*%
D70*
%TO.C,U5*%
X77098880Y-141057700D03*
X77596720Y-141057700D03*
D71*
X77899800Y-140414200D03*
D70*
X77596720Y-139770700D03*
X77098880Y-139770700D03*
D71*
X76795800Y-140414200D03*
%TD*%
D62*
%TO.C,U6*%
X84708720Y-139770700D03*
X84210880Y-139770700D03*
D63*
X83907800Y-140414200D03*
D62*
X84210880Y-141057700D03*
X84708720Y-141057700D03*
D63*
X85011800Y-140414200D03*
%TD*%
D64*
%TO.C,U7*%
X98326900Y-166023680D03*
X98326900Y-166521520D03*
D65*
X98970400Y-166824600D03*
D64*
X99613900Y-166521520D03*
X99613900Y-166023680D03*
D65*
X98970400Y-165720600D03*
%TD*%
D72*
%TO.C,U8*%
X81500700Y-137874200D03*
D73*
X80649800Y-137424620D03*
D72*
X79798900Y-137874200D03*
D73*
X80649800Y-138323780D03*
%TD*%
D74*
%TO.C,U9*%
X77851000Y-146304000D03*
D75*
X78101000Y-146254000D03*
D76*
X78091000Y-146794000D03*
D77*
X78101000Y-146729000D03*
D78*
X77851000Y-146304000D03*
D79*
X77601000Y-146304000D03*
D80*
X78801000Y-146904000D03*
X78801000Y-146504000D03*
X78801000Y-146104000D03*
X78801000Y-145704000D03*
X76901000Y-145704000D03*
X76901000Y-146104000D03*
X76901000Y-146504000D03*
X76901000Y-146904000D03*
%TD*%
D70*
%TO.C,U10*%
X104714480Y-158807500D03*
X105212320Y-158807500D03*
D71*
X105515400Y-158164000D03*
D70*
X105212320Y-157520500D03*
X104714480Y-157520500D03*
D71*
X104411400Y-158164000D03*
%TD*%
D64*
%TO.C,U11*%
X108985000Y-156026380D03*
X108985000Y-156524220D03*
D65*
X109628500Y-156827300D03*
D64*
X110272000Y-156524220D03*
X110272000Y-156026380D03*
D65*
X109628500Y-155723300D03*
%TD*%
D81*
%TO.C,U12*%
X77660000Y-153559000D03*
D82*
X78200000Y-153569000D03*
D83*
X77710000Y-153809000D03*
D84*
X78135000Y-153559000D03*
D85*
X77710000Y-153809000D03*
D86*
X77710000Y-154059000D03*
D87*
X78310000Y-152859000D03*
X77910000Y-152859000D03*
X77510000Y-152859000D03*
X77110000Y-152859000D03*
X77110000Y-154759000D03*
X77510000Y-154759000D03*
X77910000Y-154759000D03*
X78310000Y-154759000D03*
%TD*%
D88*
%TO.C,U13*%
X71880700Y-154291600D03*
X71880700Y-154952000D03*
X71880700Y-155612400D03*
X73887300Y-155612400D03*
X73887300Y-154952000D03*
X73887300Y-154291600D03*
%TD*%
D89*
%TO.C,U14*%
X72622600Y-159357600D03*
D90*
X73112600Y-159117600D03*
D91*
X72687600Y-159367600D03*
D92*
X73112600Y-159117600D03*
D86*
X73112600Y-158867600D03*
D81*
X73162600Y-159367600D03*
D93*
X72512600Y-160067600D03*
X72912600Y-160067600D03*
X73312600Y-160067600D03*
X73712600Y-160067600D03*
X73712600Y-158167600D03*
X73312600Y-158167600D03*
X72912600Y-158167600D03*
X72512600Y-158167600D03*
%TD*%
D94*
%TO.C,U15*%
X170025000Y-124875000D03*
D95*
X170975000Y-125375000D03*
X170975000Y-124875000D03*
X170975000Y-124375000D03*
X169075000Y-124375000D03*
X169075000Y-124875000D03*
X169075000Y-125375000D03*
%TD*%
D96*
%TO.C,U17*%
X108648500Y-141897100D03*
D97*
X106448500Y-144897100D03*
X106848500Y-144897100D03*
X107248500Y-144897100D03*
X107648500Y-144897100D03*
X108048500Y-144897100D03*
X108448500Y-144897100D03*
X108848500Y-144897100D03*
X109248500Y-144897100D03*
X109648500Y-144897100D03*
X110048500Y-144897100D03*
X110448500Y-144897100D03*
X110848500Y-144897100D03*
D98*
X111648500Y-144097100D03*
X111648500Y-143697100D03*
X111648500Y-143297100D03*
X111648500Y-142897100D03*
X111648500Y-142497100D03*
X111648500Y-142097100D03*
X111648500Y-141697100D03*
X111648500Y-141297100D03*
X111648500Y-140897100D03*
X111648500Y-140497100D03*
X111648500Y-140097100D03*
X111648500Y-139697100D03*
D97*
X110848500Y-138897100D03*
X110448500Y-138897100D03*
X110048500Y-138897100D03*
X109648500Y-138897100D03*
X109248500Y-138897100D03*
X108848500Y-138897100D03*
X108448500Y-138897100D03*
X108048500Y-138897100D03*
X107648500Y-138897100D03*
X107248500Y-138897100D03*
X106848500Y-138897100D03*
X106448500Y-138897100D03*
D98*
X105648500Y-139697100D03*
X105648500Y-140097100D03*
X105648500Y-140497100D03*
X105648500Y-140897100D03*
X105648500Y-141297100D03*
X105648500Y-141697100D03*
X105648500Y-142097100D03*
X105648500Y-142497100D03*
X105648500Y-142897100D03*
X105648500Y-143297100D03*
X105648500Y-143697100D03*
X105648500Y-144097100D03*
%TD*%
D99*
%TO.C,U18*%
X102895400Y-112461800D03*
D100*
X100145400Y-115911800D03*
X100645400Y-115911800D03*
X101145400Y-115911800D03*
X101645400Y-115911800D03*
X102145400Y-115911800D03*
X102645400Y-115911800D03*
X103145400Y-115911800D03*
X103645400Y-115911800D03*
X104145400Y-115911800D03*
X104645400Y-115911800D03*
X105145400Y-115911800D03*
X105645400Y-115911800D03*
D101*
X106345400Y-115211800D03*
X106345400Y-114711800D03*
X106345400Y-114211800D03*
X106345400Y-113711800D03*
X106345400Y-113211800D03*
X106345400Y-112711800D03*
X106345400Y-112211800D03*
X106345400Y-111711800D03*
X106345400Y-111211800D03*
X106345400Y-110711800D03*
X106345400Y-110211800D03*
X106345400Y-109711800D03*
D100*
X105645400Y-109011800D03*
X105145400Y-109011800D03*
X104645400Y-109011800D03*
X104145400Y-109011800D03*
X103645400Y-109011800D03*
X103145400Y-109011800D03*
X102645400Y-109011800D03*
X102145400Y-109011800D03*
X101645400Y-109011800D03*
X101145400Y-109011800D03*
X100645400Y-109011800D03*
X100145400Y-109011800D03*
D101*
X99445400Y-109711800D03*
X99445400Y-110211800D03*
X99445400Y-110711800D03*
X99445400Y-111211800D03*
X99445400Y-111711800D03*
X99445400Y-112211800D03*
X99445400Y-112711800D03*
X99445400Y-113211800D03*
X99445400Y-113711800D03*
X99445400Y-114211800D03*
X99445400Y-114711800D03*
X99445400Y-115211800D03*
%TD*%
D102*
%TO.C,U19*%
X127469200Y-162926000D03*
D103*
X126469200Y-165126000D03*
X126969200Y-165126000D03*
X127469200Y-165126000D03*
X127969200Y-165126000D03*
X128469200Y-165126000D03*
D104*
X129669200Y-163926000D03*
X129669200Y-163426000D03*
X129669200Y-162926000D03*
X129669200Y-162426000D03*
X129669200Y-161926000D03*
D103*
X128469200Y-160726000D03*
X127969200Y-160726000D03*
X127469200Y-160726000D03*
X126969200Y-160726000D03*
X126469200Y-160726000D03*
D104*
X125269200Y-161926000D03*
X125269200Y-162426000D03*
X125269200Y-162926000D03*
X125269200Y-163426000D03*
X125269200Y-163926000D03*
%TD*%
D105*
%TO.C,U20*%
X164566600Y-160553400D03*
X164566600Y-159283400D03*
X164566600Y-158013400D03*
X164566600Y-156743400D03*
X156946600Y-156743400D03*
X156946600Y-158013400D03*
X156946600Y-159283400D03*
X156946600Y-160553400D03*
%TD*%
D106*
%TO.C,U21*%
X169940000Y-111351200D03*
D107*
X169780000Y-113151200D03*
D106*
X169120000Y-111351200D03*
D108*
X170030000Y-111201200D03*
X170030000Y-112701200D03*
D107*
X169280000Y-110751200D03*
D108*
X169030000Y-112701200D03*
D106*
X169120000Y-112551200D03*
D108*
X169030000Y-111201200D03*
D106*
X169940000Y-112551200D03*
D107*
X169780000Y-110751200D03*
D108*
X169530000Y-111951200D03*
D107*
X169280000Y-113151200D03*
D109*
X171030000Y-112951200D03*
X171030000Y-112451200D03*
X171030000Y-111951200D03*
X171030000Y-111451200D03*
X171030000Y-110951200D03*
X168030000Y-110951200D03*
X168030000Y-111451200D03*
X168030000Y-111951200D03*
X168030000Y-112451200D03*
X168030000Y-112951200D03*
%TD*%
D110*
%TO.C,U23*%
X163213888Y-138552969D03*
X162860066Y-138199147D03*
X162506244Y-137845324D03*
X162152422Y-137491502D03*
X161798600Y-137137680D03*
X161446574Y-136785654D03*
X161092752Y-136431832D03*
X160738930Y-136078010D03*
X160385108Y-135724188D03*
X160031286Y-135370366D03*
X159677463Y-135016544D03*
X159325437Y-134664518D03*
X158971615Y-134310696D03*
X158617793Y-133956874D03*
X158263971Y-133603051D03*
X157910149Y-133249229D03*
X157556327Y-132895407D03*
X157202505Y-132541585D03*
X156850479Y-132189559D03*
X156496657Y-131835737D03*
X156142835Y-131481915D03*
X155789013Y-131128093D03*
X155435190Y-130774271D03*
X155081368Y-130420449D03*
X154727546Y-130066627D03*
X154375520Y-129714601D03*
X154021698Y-129360778D03*
X153667876Y-129006956D03*
X153314054Y-128653134D03*
X152960232Y-128299312D03*
X152606410Y-127945490D03*
X152254384Y-127593464D03*
X151900562Y-127239642D03*
X151546740Y-126885820D03*
X151192917Y-126531998D03*
X150839095Y-126178176D03*
D111*
X147656493Y-126178176D03*
X147302671Y-126531998D03*
X146948848Y-126885820D03*
X146595026Y-127239642D03*
X146241204Y-127593464D03*
X145889178Y-127945490D03*
X145535356Y-128299312D03*
X145181534Y-128653134D03*
X144827712Y-129006956D03*
X144473890Y-129360778D03*
X144120068Y-129714601D03*
X143768042Y-130066627D03*
X143414220Y-130420449D03*
X143060398Y-130774271D03*
X142706575Y-131128093D03*
X142352753Y-131481915D03*
X141998931Y-131835737D03*
X141645109Y-132189559D03*
X141293083Y-132541585D03*
X140939261Y-132895407D03*
X140585439Y-133249229D03*
X140231617Y-133603051D03*
X139877795Y-133956874D03*
X139523973Y-134310696D03*
X139170151Y-134664518D03*
X138818125Y-135016544D03*
X138464302Y-135370366D03*
X138110480Y-135724188D03*
X137756658Y-136078010D03*
X137402836Y-136431832D03*
X137049014Y-136785654D03*
X136696988Y-137137680D03*
X136343166Y-137491502D03*
X135989344Y-137845324D03*
X135635522Y-138199147D03*
X135281700Y-138552969D03*
D110*
X135281700Y-141735571D03*
X135635522Y-142089393D03*
X135989344Y-142443216D03*
X136343166Y-142797038D03*
X136696988Y-143150860D03*
X137049014Y-143502886D03*
X137402836Y-143856708D03*
X137756658Y-144210530D03*
X138110480Y-144564352D03*
X138464302Y-144918174D03*
X138818125Y-145271996D03*
X139170151Y-145624022D03*
X139523973Y-145977844D03*
X139877795Y-146331666D03*
X140231617Y-146685489D03*
X140585439Y-147039311D03*
X140939261Y-147393133D03*
X141293083Y-147746955D03*
X141645109Y-148098981D03*
X141998931Y-148452803D03*
X142352753Y-148806625D03*
X142706575Y-149160447D03*
X143060398Y-149514269D03*
X143414220Y-149868091D03*
X143768042Y-150221913D03*
X144120068Y-150573939D03*
X144473890Y-150927762D03*
X144827712Y-151281584D03*
X145181534Y-151635406D03*
X145535356Y-151989228D03*
X145889178Y-152343050D03*
X146241204Y-152695076D03*
X146595026Y-153048898D03*
X146948848Y-153402720D03*
X147302671Y-153756542D03*
X147656493Y-154110364D03*
D111*
X150839095Y-154110364D03*
X151192917Y-153756542D03*
X151546740Y-153402720D03*
X151900562Y-153048898D03*
X152254384Y-152695076D03*
X152606410Y-152343050D03*
X152960232Y-151989228D03*
X153314054Y-151635406D03*
X153667876Y-151281584D03*
X154021698Y-150927762D03*
X154375520Y-150573939D03*
X154727546Y-150221913D03*
X155081368Y-149868091D03*
X155435190Y-149514269D03*
X155789013Y-149160447D03*
X156142835Y-148806625D03*
X156496657Y-148452803D03*
X156850479Y-148098981D03*
X157202505Y-147746955D03*
X157556327Y-147393133D03*
X157910149Y-147039311D03*
X158263971Y-146685489D03*
X158617793Y-146331666D03*
X158971615Y-145977844D03*
X159325437Y-145624022D03*
X159677463Y-145271996D03*
X160031286Y-144918174D03*
X160385108Y-144564352D03*
X160738930Y-144210530D03*
X161092752Y-143856708D03*
X161446574Y-143502886D03*
X161798600Y-143150860D03*
X162152422Y-142797038D03*
X162506244Y-142443216D03*
X162860066Y-142089393D03*
X163213888Y-141735571D03*
%TD*%
D112*
%TO.C,U24*%
X132745480Y-109016800D03*
X132245100Y-109016800D03*
X131747260Y-109016800D03*
X131246880Y-109016800D03*
X130746500Y-109016800D03*
X130246120Y-109016800D03*
X129745740Y-109016800D03*
X129245360Y-109016800D03*
X128744980Y-109016800D03*
X128247140Y-109016800D03*
X127746760Y-109016800D03*
X127246380Y-109016800D03*
X126746000Y-109016800D03*
X126245620Y-109016800D03*
X125745240Y-109016800D03*
X125244860Y-109016800D03*
X124747020Y-109016800D03*
X124246640Y-109016800D03*
X123746260Y-109016800D03*
X123245880Y-109016800D03*
X122745500Y-109016800D03*
X122245120Y-109016800D03*
X121744740Y-109016800D03*
X121246900Y-109016800D03*
X120746520Y-109016800D03*
D113*
X118745000Y-111018320D03*
X118745000Y-111518700D03*
X118745000Y-112016540D03*
X118745000Y-112516920D03*
X118745000Y-113017300D03*
X118745000Y-113517680D03*
X118745000Y-114018060D03*
X118745000Y-114518440D03*
X118745000Y-115018820D03*
X118745000Y-115516660D03*
X118745000Y-116017040D03*
X118745000Y-116517420D03*
X118745000Y-117017800D03*
X118745000Y-117518180D03*
X118745000Y-118018560D03*
X118745000Y-118518940D03*
X118745000Y-119016780D03*
X118745000Y-119517160D03*
X118745000Y-120017540D03*
X118745000Y-120517920D03*
X118745000Y-121018300D03*
X118745000Y-121518680D03*
X118745000Y-122019060D03*
X118745000Y-122516900D03*
X118745000Y-123017280D03*
D112*
X120746520Y-125018800D03*
X121246900Y-125018800D03*
X121744740Y-125018800D03*
X122245120Y-125018800D03*
X122745500Y-125018800D03*
X123245880Y-125018800D03*
X123746260Y-125018800D03*
X124246640Y-125018800D03*
X124747020Y-125018800D03*
X125244860Y-125018800D03*
X125745240Y-125018800D03*
X126245620Y-125018800D03*
X126746000Y-125018800D03*
X127246380Y-125018800D03*
X127746760Y-125018800D03*
X128247140Y-125018800D03*
X128744980Y-125018800D03*
X129245360Y-125018800D03*
X129745740Y-125018800D03*
X130246120Y-125018800D03*
X130746500Y-125018800D03*
X131246880Y-125018800D03*
X131747260Y-125018800D03*
X132245100Y-125018800D03*
X132745480Y-125018800D03*
D113*
X134747000Y-123017280D03*
X134747000Y-122516900D03*
X134747000Y-122019060D03*
X134747000Y-121518680D03*
X134747000Y-121018300D03*
X134747000Y-120517920D03*
X134747000Y-120017540D03*
X134747000Y-119517160D03*
X134747000Y-119016780D03*
X134747000Y-118518940D03*
X134747000Y-118018560D03*
X134747000Y-117518180D03*
X134747000Y-117017800D03*
X134747000Y-116517420D03*
X134747000Y-116017040D03*
X134747000Y-115516660D03*
X134747000Y-115018820D03*
X134747000Y-114518440D03*
X134747000Y-114018060D03*
X134747000Y-113517680D03*
X134747000Y-113017300D03*
X134747000Y-112516920D03*
X134747000Y-112016540D03*
X134747000Y-111518700D03*
X134747000Y-111018320D03*
%TD*%
D114*
%TO.C,U25*%
X80745300Y-158660400D03*
X80745300Y-158000000D03*
X80745300Y-157339600D03*
X78738700Y-157339600D03*
X78738700Y-158000000D03*
X78738700Y-158660400D03*
%TD*%
D115*
%TO.C,X1*%
X125475300Y-169867820D03*
X125475300Y-167668180D03*
X123875100Y-167668180D03*
X123875100Y-169867820D03*
%TD*%
D116*
%TO.C,X2*%
X162937297Y-133692854D03*
X164492677Y-132137474D03*
X163361165Y-131005962D03*
X161805785Y-132561342D03*
%TD*%
D117*
%TO.C,X3*%
X167050000Y-153500000D03*
D118*
X161500000Y-153050000D03*
X161500000Y-153950000D03*
%TD*%
D14*
%TO.C,C151*%
X117094000Y-108915200D03*
X117094000Y-107848400D03*
%TD*%
D50*
%TO.C,P45*%
X77000000Y-137300000D03*
%TD*%
D52*
%TO.C,NT1*%
X145090000Y-112770000D03*
D46*
X147630000Y-112770000D03*
%TD*%
D52*
%TO.C,NT2*%
X157790000Y-112770000D03*
D46*
X160330000Y-112770000D03*
%TD*%
D51*
%TO.C,NT3*%
X84130000Y-128010000D03*
D46*
X84130000Y-125470000D03*
%TD*%
D119*
%TO.C,D10*%
X70650000Y-162568800D03*
X70650000Y-163218800D03*
%TD*%
D120*
%TO.C,JP1*%
X71870000Y-162694400D03*
D121*
X71870000Y-162402300D03*
D120*
X71870000Y-163405600D03*
D121*
X71870000Y-163697700D03*
%TD*%
D13*
%TO.C,R43*%
X78400000Y-163166600D03*
X78400000Y-164233400D03*
%TD*%
D15*
%TO.C,R38*%
X166233400Y-147700000D03*
X165166600Y-147700000D03*
%TD*%
D12*
%TO.C,FID2*%
X68200000Y-173200000D03*
%TD*%
D13*
%TO.C,R42*%
X71100000Y-151466600D03*
X71100000Y-152533400D03*
%TD*%
D16*
%TO.C,R39*%
X165166600Y-148700000D03*
X166233400Y-148700000D03*
%TD*%
M02*
